<svg width="50" height="50" viewBox="0 0 50 50" fill="none" xmlns="http://www.w3.org/2000/svg">
<circle cx="24.5" cy="16.5" r="2" stroke="white"/>
<path fill-rule="evenodd" clip-rule="evenodd" d="M27.857 14.143L29.0962 12.9038C28.6115 12.4191 28.0582 12.0189 27.459 11.7126C26.5513 11.2485 25.5385 11 24.5 11C23.4615 11 22.4487 11.2485 21.541 11.7126C20.942 12.0188 20.3888 12.4189 19.9043 12.9034L19.9038 12.9038L21.143 14.143C22.0718 13.4263 23.2361 13 24.5 13C25.7639 13 26.9282 13.4263 27.857 14.143Z" fill="white"/>
<path fill-rule="evenodd" clip-rule="evenodd" d="M19.3938 11.704C20.8155 10.6341 22.5837 10 24.5 10C26.4381 10 28.2248 10.6487 29.6547 11.7408L30.8357 10.4212C30.3312 9.96973 29.7837 9.57665 29.2034 9.24603C27.7911 8.44123 26.1853 8.00655 24.5373 8.00007C22.8893 7.9936 21.2802 8.41566 19.8615 9.20934C19.2787 9.53539 18.7281 9.92415 18.2201 10.3717L19.3938 11.704Z" fill="white"/>
<path fill-rule="evenodd" clip-rule="evenodd" d="M30.7659 9.75625C29.212 8.0621 26.9801 7 24.5001 7C22.0347 7 19.8145 8.04955 18.2619 9.72622L16.7942 8.36771C17.2514 7.87375 17.7538 7.42623 18.2938 7.03051C18.9183 6.57287 19.5932 6.1845 20.3068 5.87365C21.6375 5.29401 23.0739 4.99654 24.5253 5.00003C25.9767 5.00352 27.4117 5.30788 28.7395 5.89391C29.4516 6.20818 30.1246 6.59979 30.7469 7.06042C31.2851 7.45874 31.7853 7.90867 32.2401 8.40482L30.7659 9.75625Z" fill="white"/>
<circle cx="24.5" cy="16.5" r="0.5" fill="white"/>
<circle cx="15" cy="41" r="3" stroke="white" stroke-width="2"/>
<circle cx="15" cy="41" r="1" fill="white"/>
<circle cx="36" cy="41" r="3" stroke="white" stroke-width="2"/>
<circle cx="36" cy="41" r="1" fill="white"/>
<rect x="26" y="34" width="2" height="2" fill="white"/>
<path d="M4 36.5V36C4 33.7909 5.79086 32 8 32V32H12M12 32L14.5 24H17M12 32H15M38 32L32 24H27M38 32H42C44.4853 32 46.5 34.0147 46.5 36.5V36.5M38 32H31M15 32L17 24M15 32H31M17 24H24.75M17 24V24C17 22.8954 17.8954 22 19 22H24.5M31 32L24.75 24M24.75 24H27M27 24V22H24.5M24.5 22V20M6.5 38.5H2.5V41.5H9.5C9.5 41.5 9.5 36 14.5 36C17.6189 36 18.9691 37.6078 19.5537 39M43.5 38.5H47V41H41C41 41 41 36 36 36C33.1647 36 31.9371 37.6078 31.4057 39M19.5537 39C20 40.0629 20 41 20 41H31C31 41 31 40.0629 31.4057 39M19.5537 39H31.4057" stroke="white"/>
</svg>
