<svg width="200" height="200" viewBox="0 0 200 200" fill="none" xmlns="http://www.w3.org/2000/svg">
<path fill-rule="evenodd" clip-rule="evenodd" d="M189 50H192V167H189.937L190.008 167.208L129.668 187.637L129.589 187.402L81.3988 168.16L81.4947 168.497L20.0811 185.937L20 185.652V186H10V167H8V50H8.00771L8 49.9741L80.9648 28.2488L81.0776 28.6276L81.3284 28L132.939 48.6255L181 33.0074V30H189V50Z" fill="white"/>
<path fill-rule="evenodd" clip-rule="evenodd" d="M78.9354 26.3721C80.0212 26.0563 81.182 26.118 82.2282 26.547L130.212 46.2205C130.437 46.3127 130.688 46.3198 130.918 46.2407L185.371 27.4794C188.618 26.3608 192 28.7727 192 32.2066V165.843C192 167.991 190.629 169.899 188.593 170.583L132.183 189.544C131.058 189.922 129.835 189.888 128.733 189.447L80.7065 170.237C80.5014 170.155 80.2748 170.143 80.0622 170.203L14.3646 188.841C11.1726 189.746 8 187.348 8 184.031V50.7519C8 48.5281 9.46864 46.5716 11.6039 45.9507L78.9354 26.3721ZM80.7108 30.248C80.5016 30.1622 80.2694 30.1498 80.0523 30.213L12.7208 49.7916C12.2937 49.9158 12 50.3071 12 50.7519V184.031C12 184.694 12.6345 185.174 13.2729 184.993L78.9705 166.355C80.0334 166.053 81.1663 166.112 82.1921 166.523L130.218 185.733C130.439 185.821 130.683 185.828 130.908 185.753L187.319 166.791C187.726 166.654 188 166.273 188 165.843V32.2066C188 31.5198 187.324 31.0375 186.674 31.2612L132.221 50.0225C131.072 50.4182 129.819 50.3823 128.695 49.9215L80.7108 30.248ZM80.7677 40.7511C80.5533 40.6675 80.3167 40.6604 80.0976 40.731L22.6932 59.2332C22.2801 59.3664 22 59.7509 22 60.185V171.032C22 171.695 22.6343 172.175 23.2726 171.994L79.4105 156.088C79.5968 156.031 79.7948 156 80 156C81.1046 156 82 156.895 82 158C82 158.931 81.364 159.713 80.5029 159.936L24.363 175.843C21.1713 176.747 18 174.349 18 171.032V60.185C18 58.0145 19.4003 56.0919 21.4661 55.4261L78.8705 36.9238C79.9657 36.5708 81.1491 36.6064 82.2211 37.0245L130.188 55.7315C130.411 55.8186 130.659 55.8226 130.885 55.7427L175.333 40.0285C178.587 38.8782 182 41.2916 182 44.7425V159.81C182 161.984 180.595 163.91 178.524 164.572L130.654 179.891C130.449 179.961 130.229 180 130 180C128.895 180 128 179.105 128 178C128 177.092 128.605 176.325 129.434 176.081L177.305 160.763C177.719 160.63 178 160.245 178 159.81V44.7425C178 44.0523 177.317 43.5697 176.667 43.7997L132.218 59.5139C131.088 59.9135 129.851 59.8937 128.735 59.4581L80.7677 40.7511ZM88 161V155V155C88 153.895 88.8954 153 90 153C91.1046 153 92 153.895 92 155V155V161V161C92 162.105 91.1046 163 90 163C88.8954 163 88 162.105 88 161V161ZM102 158V164V164C102 165.105 101.105 166 100 166C98.8954 166 98 165.105 98 164V164V158V158C98 156.895 98.8954 156 100 156C101.105 156 102 156.895 102 158V158ZM108 167V161V161C108 159.895 108.895 159 110 159C111.105 159 112 159.895 112 161V161V167V167C112 168.105 111.105 169 110 169C108.895 169 108 168.105 108 167V167ZM122 164V170V170C122 171.105 121.105 172 120 172C118.895 172 118 171.105 118 170V170V164V164C118 162.895 118.895 162 120 162C121.105 162 122 162.895 122 164V164Z" fill="black"/>
<path fill-rule="evenodd" clip-rule="evenodd" d="M51.4846 78.2481L51.4844 78.2495L51.4842 78.2505L51.4842 78.2512L51.4832 78.2585L51.4818 78.269L41.9856 148.241C41.8666 149.232 41.023 150 40 150C38.8954 150 38 149.105 38 148C38 147.897 38.0077 147.797 38.0226 147.698L47.5157 77.75L47.516 77.7477L47.5168 77.7416L47.5173 77.7378L47.5191 77.7239L47.5268 77.6671C47.5334 77.6198 47.5429 77.5539 47.5557 77.4707C47.5814 77.3042 47.6204 77.068 47.6759 76.772C47.7868 76.1806 47.9641 75.3473 48.2336 74.3522C48.7705 72.3697 49.6841 69.7043 51.1943 67.0195C54.2342 61.6153 59.8012 56 69.5 56C78.7168 56 84.3853 61.6367 87.643 66.9554C89.2741 69.6184 90.347 72.2645 91.0122 74.2354C91.3459 75.2244 91.58 76.0522 91.732 76.6393C91.8081 76.9331 91.8638 77.1672 91.9012 77.3317C91.9199 77.414 91.9341 77.479 91.944 77.5254L91.9557 77.5809L91.9592 77.598L91.9604 77.6038L91.9608 77.606C91.961 77.6069 91.9612 77.6078 90 78L91.9612 77.6078L91.9675 77.6394L91.9728 77.6712L101.938 137.461C101.966 137.529 102.003 137.617 102.048 137.723C102.176 138.018 102.371 138.449 102.635 138.971C103.167 140.018 103.962 141.404 105.022 142.779C107.182 145.582 110.165 148 114 148C117.835 148 120.818 145.582 122.978 142.779C124.038 141.404 124.833 140.018 125.365 138.971C125.629 138.449 125.824 138.018 125.952 137.723C126.01 137.588 126.054 137.482 126.083 137.409L135.05 98.0557L135.062 98.0028L135.077 97.9506L137 98.5C135.077 97.9506 135.077 97.9497 135.077 97.9488L135.078 97.9468L135.079 97.942L135.083 97.9296L135.094 97.8933C135.103 97.8642 135.115 97.8251 135.13 97.7769C135.16 97.6805 135.204 97.5471 135.263 97.3818C135.38 97.0518 135.555 96.5926 135.797 96.0471C136.28 94.9613 137.041 93.5049 138.159 92.0379C140.406 89.0889 144.187 86 150 86C151.105 86 152 86.8954 152 88C152 89.1046 151.105 90 150 90C145.813 90 143.094 92.1611 141.341 94.4621C140.459 95.6201 139.845 96.7887 139.453 97.6717C139.258 98.1105 139.12 98.4716 139.034 98.7158C138.991 98.8377 138.961 98.9298 138.942 98.9872L138.935 99.0119L129.95 138.444L129.92 138.576L129.873 138.702L128 138C129.873 138.702 129.872 138.703 129.872 138.704L129.871 138.705L129.87 138.71L129.865 138.721L129.852 138.757L129.836 138.797C129.827 138.821 129.816 138.848 129.803 138.88C129.762 138.983 129.702 139.127 129.624 139.308C129.469 139.669 129.238 140.176 128.932 140.779C128.323 141.982 127.399 143.596 126.147 145.221C123.682 148.418 119.665 152 114 152C108.335 152 104.318 148.418 101.853 145.221C100.601 143.596 99.6772 141.982 99.0677 140.779C98.7617 140.176 98.5314 139.669 98.3756 139.308C98.2976 139.127 98.2381 138.983 98.1968 138.88C98.1842 138.848 98.1732 138.821 98.164 138.797L98.1485 138.757L98.1345 138.721L98.1301 138.71L98.1285 138.705L98.1279 138.704C98.1276 138.703 98.1273 138.702 100 138L98.1273 138.702L98.0591 138.52L98.0272 138.329L88.0338 78.3682L88.032 78.3599C88.0258 78.3306 88.0155 78.2832 88.0009 78.2191C87.9717 78.0906 87.9253 77.8951 87.8597 77.6419C87.7285 77.1353 87.5213 76.4006 87.2222 75.5146C86.6218 73.7355 85.6634 71.3816 84.232 69.0446C81.3647 64.3633 76.7832 60 69.5 60C61.6988 60 57.2658 64.3847 54.6807 68.9805C53.3784 71.2957 52.5732 73.6303 52.0945 75.3978C51.8562 76.2777 51.7015 77.0069 51.6073 77.5092C51.5603 77.7601 51.5285 77.9536 51.509 78.0801C51.4992 78.1434 51.4926 78.1898 51.4886 78.2182L51.4847 78.2471L51.4846 78.2481ZM157.172 88L148.586 79.4142C148.224 79.0523 148 78.5523 148 78C148 76.8954 148.895 76 150 76C150.552 76 151.052 76.2239 151.414 76.5858L160 85.1716L168.586 76.5858C168.948 76.2239 169.448 76 170 76C171.105 76 172 76.8954 172 78C172 78.5523 171.776 79.0523 171.414 79.4142L162.828 88L171.414 96.5858C171.776 96.9477 172 97.4477 172 98C172 99.1046 171.105 100 170 100C169.448 100 168.948 99.7761 168.586 99.4142L160 90.8284L151.414 99.4142C151.052 99.7761 150.552 100 150 100C148.895 100 148 99.1046 148 98C148 97.4477 148.224 96.9477 148.586 96.5858L157.172 88Z" fill="black"/>
<path d="M113.2 90L100 76.7288V85.5763C100 88.0063 101.97 90 104.4 90H113.2Z" fill="black"/>
<path d="M138.133 22.1695L101.5 59L100 60.5085H117.6H119.067V61.983V67.8814C119.067 69.1029 120.057 70.0932 121.279 70.0932H122H129.333C130.143 70.0932 130.8 70.7499 130.8 71.5599V72.3051V90L133 88L168.933 51.661L138.133 22.1695Z" fill="white"/>
<path d="M177.733 42.8136L146.933 13.322L138.133 22.1695L168.933 51.661L177.733 42.8136Z" fill="white"/>
<path d="M183.6 36.9153C186.016 34.4858 185.968 30.5462 183.493 28.1764L161.707 7.31511C159.204 4.91879 155.243 4.96709 152.8 7.42373L146.933 13.322L177.733 42.8136L183.6 36.9153Z" fill="white"/>
<path d="M100 76.7288L113.2 90H129H130.8V72.3051V71.5599C130.8 70.7499 130.143 70.0932 129.333 70.0932H122H121.279C120.057 70.0932 119.067 69.1029 119.067 67.8814V61.983V60.5085H117.6H100V61.983V76.7288Z" fill="white"/>
<path d="M100 60.5085H117.6H119.067M100 60.5085V61.983V76.7288M100 60.5085L101.5 59L138.133 22.1695M130.8 90V72.3051V71.5599C130.8 70.7499 130.143 70.0932 129.333 70.0932V70.0932H122H121.279C120.057 70.0932 119.067 69.1029 119.067 67.8814V67.8814V61.983V60.5085M130.8 90H129H113.2M130.8 90L133 88L168.933 51.661M100 76.7288L113.2 90M100 76.7288V85.5763V85.5763C100 88.0063 101.97 90 104.4 90V90H113.2M146.933 13.322L177.733 42.8136M146.933 13.322L138.133 22.1695M146.933 13.322L152.8 7.42373V7.42373C155.243 4.96709 159.204 4.91879 161.707 7.31511L183.493 28.1764C185.968 30.5462 186.016 34.4858 183.6 36.9153V36.9153L177.733 42.8136M177.733 42.8136L168.933 51.661M138.133 22.1695L168.933 51.661M119.067 60.5085L130 50" stroke="black" stroke-width="4"/>
<circle cx="130" cy="50" r="2" fill="black"/>
</svg>
