<svg width="50" height="50" viewBox="0 0 50 50" fill="none" xmlns="http://www.w3.org/2000/svg">
<path fill-rule="evenodd" clip-rule="evenodd" d="M30 8.5C30 8.60856 29.9654 8.70904 29.9066 8.79102L6.91424 41.7801C6.82434 41.9128 6.67235 42 6.5 42C6.22386 42 6 41.7761 6 41.5C6 41.3915 6.03459 41.291 6.09334 41.209L29.0857 8.21995C29.1756 8.08723 29.3276 8 29.5 8C29.7761 8 30 8.22386 30 8.5ZM26.0719 41.2415C26.0263 41.3169 26 41.4054 26 41.5C26 41.7761 26.2239 42 26.5 42C26.688 42 26.8518 41.8962 26.9372 41.7428L44.9281 10.7584C44.9737 10.683 45 10.5946 45 10.5C45 10.2239 44.7761 10 44.5 10C44.312 10 44.1483 10.1037 44.0629 10.2571L26.0719 41.2415ZM32.424 17.265L37.424 9.265L36.576 8.735L31.576 16.735L32.424 17.265ZM24.924 28.765L29.924 20.765L29.076 20.235L24.076 28.235L24.924 28.765ZM17.424 40.765L22.424 32.765L21.576 32.235L16.576 40.235L17.424 40.765Z" fill="black"/>
</svg>
